<?xml version="1.0" encoding="utf-8"?>
<!-- Generator: Adobe Illustrator 24.0.2, SVG Export Plug-In . SVG Version: 6.00 Build 0)  -->
<svg version="1.1" id="Layer_1" xmlns="http://www.w3.org/2000/svg" xmlns:xlink="http://www.w3.org/1999/xlink" x="0px" y="0px"
	 viewBox="0 0 151 170" style="enable-background:new 0 0 151 170;" xml:space="preserve">
<style type="text/css">
	
		.st0{fill:none;stroke:#00FFFF;stroke-width:0.25;stroke-linecap:round;stroke-linejoin:round;stroke-miterlimit:10;stroke-dasharray:0.2,1,0.2,1,0.2,1;}
	
		.st1{fill:none;stroke:#00F9FD;stroke-width:0.25;stroke-linecap:round;stroke-linejoin:round;stroke-miterlimit:10;stroke-dasharray:0.2,1,0.2,1,0.2,1;}
	
		.st2{fill:none;stroke:#00F3FB;stroke-width:0.25;stroke-linecap:round;stroke-linejoin:round;stroke-miterlimit:10;stroke-dasharray:0.2,1,0.2,1,0.2,1;}
	
		.st3{fill:none;stroke:#00EDF9;stroke-width:0.25;stroke-linecap:round;stroke-linejoin:round;stroke-miterlimit:10;stroke-dasharray:0.2,1,0.2,1,0.2,1;}
	
		.st4{fill:none;stroke:#00E7F7;stroke-width:0.25;stroke-linecap:round;stroke-linejoin:round;stroke-miterlimit:10;stroke-dasharray:0.2,1,0.2,1,0.2,1;}
	
		.st5{fill:none;stroke:#00E1F5;stroke-width:0.25;stroke-linecap:round;stroke-linejoin:round;stroke-miterlimit:10;stroke-dasharray:0.2,1,0.2,1,0.2,1;}
	
		.st6{fill:none;stroke:#00DCF3;stroke-width:0.25;stroke-linecap:round;stroke-linejoin:round;stroke-miterlimit:10;stroke-dasharray:0.2,1,0.2,1,0.2,1;}
	
		.st7{fill:none;stroke:#00D6F1;stroke-width:0.25;stroke-linecap:round;stroke-linejoin:round;stroke-miterlimit:10;stroke-dasharray:0.2,1,0.2,1,0.2,1;}
	
		.st8{fill:none;stroke:#00D0EF;stroke-width:0.25;stroke-linecap:round;stroke-linejoin:round;stroke-miterlimit:10;stroke-dasharray:0.2,1,0.2,1,0.2,1;}
	
		.st9{fill:none;stroke:#00CAED;stroke-width:0.25;stroke-linecap:round;stroke-linejoin:round;stroke-miterlimit:10;stroke-dasharray:0.2,1,0.2,1,0.2,1;}
	
		.st10{fill:none;stroke:#00C4EB;stroke-width:0.25;stroke-linecap:round;stroke-linejoin:round;stroke-miterlimit:10;stroke-dasharray:0.2,1,0.2,1,0.2,1;}
	
		.st11{fill:none;stroke:#00BEE9;stroke-width:0.25;stroke-linecap:round;stroke-linejoin:round;stroke-miterlimit:10;stroke-dasharray:0.2,1,0.2,1,0.2,1;}
	
		.st12{fill:none;stroke:#00B8E7;stroke-width:0.25;stroke-linecap:round;stroke-linejoin:round;stroke-miterlimit:10;stroke-dasharray:0.2,1,0.2,1,0.2,1;}
	
		.st13{fill:none;stroke:#00B2E5;stroke-width:0.25;stroke-linecap:round;stroke-linejoin:round;stroke-miterlimit:10;stroke-dasharray:0.2,1,0.2,1,0.2,1;}
	
		.st14{fill:none;stroke:#00ACE3;stroke-width:0.25;stroke-linecap:round;stroke-linejoin:round;stroke-miterlimit:10;stroke-dasharray:0.2,1,0.2,1,0.2,1;}
	
		.st15{fill:none;stroke:#00A6E1;stroke-width:0.25;stroke-linecap:round;stroke-linejoin:round;stroke-miterlimit:10;stroke-dasharray:0.2,1,0.2,1,0.2,1;}
	
		.st16{fill:none;stroke:#00A0DF;stroke-width:0.25;stroke-linecap:round;stroke-linejoin:round;stroke-miterlimit:10;stroke-dasharray:0.2,1,0.2,1,0.2,1;}
</style>
<g>
	<path class="st0" d="M57.16,69.58C99.22,55,64.46,7.75,86.59,2.4c35.09-8.48,121.55,97.95,38.69,125.77
		c-21.59,7.25,21.03,61.98-18.11,34.31C98.78,156.54-86.26,119.29,57.16,69.58z"/>
	<path class="st1" d="M55.72,69.01c40.59-15.05,9.9-59.84,32.73-64.57c36.33-7.48,111.36,91.93,37.77,123.65
		c-19.05,8.21,16.76,59.71-22.02,33.14C94.53,154.6-79.14,119.03,55.72,69.01z"/>
	<path class="st2" d="M54.28,68.44C93.42,52.89,66.78,10.6,90.3,6.49C127.87,0,191.28,92.44,127.14,128.02
		c-16.56,9.19,12.41,57.56-25.93,31.96C90.27,152.67-72.02,118.62,54.28,68.44z"/>
	<path class="st3" d="M52.84,67.87C90.55,51.8,67.93,12.03,92.15,8.53c38.82-5.49,90.4,80.11,35.93,119.42
		c-14.14,10.2,8,55.49-29.84,30.79C86,150.75-64.9,118.05,52.84,67.87z"/>
	<path class="st4" d="M51.41,67.3C87.71,50.68,69.09,13.45,94,10.57c40.06-4.49,79.63,74.53,35.01,117.31
		c-11.78,11.29,3.55,53.47-33.74,29.61C81.73,148.83-57.79,117.3,51.41,67.3z"/>
	<path class="st5" d="M49.97,66.73c34.92-17.21,20.28-51.86,45.88-54.12c41.3-3.49,68.8,69.36,34.09,115.19
		c-9.45,12.48-0.93,51.5-37.65,28.43C77.45,146.92-50.7,116.36,49.97,66.73z"/>
	<path class="st6" d="M48.53,66.16C82.08,48.32,71.4,16.25,97.7,14.66c42.54-2.57,58.11,64.67,33.17,113.07
		c-7.11,13.8-5.44,49.57-41.56,27.26C73.17,145.03-43.65,115.19,48.53,66.16z"/>
	<path class="st7" d="M47.1,65.59C79.29,47.07,72.56,17.67,99.55,16.7c43.78-1.57,47.79,60.37,32.25,110.96
		c-4.68,15.22-9.96,47.66-45.47,26.08C68.87,143.14-36.65,113.78,47.1,65.59z"/>
	<path class="st8" d="M45.66,65.02c30.84-19.27,28.06-45.87,55.75-46.28c45.03-0.49,37.94,56.22,31.33,108.84
		c-2.1,16.69-14.49,45.77-49.38,24.91C64.57,141.27-29.72,112.11,45.66,65.02z"/>
	<path class="st9" d="M44.22,64.45c29.48-20.08,30.66-43.87,59.04-43.66c46.27,0.51,28.52,51.98,30.41,106.73
		c0.63,18.14-19.04,43.9-53.29,23.73C60.27,139.41-22.9,110.18,44.22,64.45z"/>
	<path class="st10" d="M42.78,63.88C70.87,42.89,76.04,22,105.11,22.83c47.52,1.51,19.37,47.5,29.49,104.61
		c3.46,19.51-23.59,42.05-57.2,22.56C55.95,137.56-16.21,107.96,42.78,63.88z"/>
	<path class="st11" d="M41.35,63.31c26.64-22,35.85-39.88,65.61-38.43c48.76,2.51,10.33,42.74,28.57,102.49
		c6.34,20.79-28.15,40.21-61.11,21.38C51.62,135.73-9.68,105.45,41.35,63.31z"/>
	<path class="st12" d="M39.91,62.74C65,39.59,78.35,24.85,108.81,26.92c50,3.51,1.31,37.74,27.65,100.38
		c9.25,22-32.71,38.38-65.02,20.21C47.29,133.92-3.37,102.67,39.91,62.74z"/>
	<path class="st13" d="M38.47,62.17c23.37-24.47,41.04-35.89,72.19-33.21c51.24,4.51-7.76,32.54,26.73,98.26
		c12.14,23.14-37.28,36.57-68.93,19.03C42.95,132.12,2.68,99.65,38.47,62.17z"/>
	<path class="st14" d="M37.04,61.6c21.35-25.98,43.63-33.9,75.48-30.59c52.49,5.51-16.89,27.21,25.81,96.15
		c15.02,24.25-41.85,34.76-72.84,17.86C38.6,130.35,8.4,96.45,37.04,61.6z"/>
	<path class="st15" d="M35.6,61.03c18.86-27.72,46.23-31.9,78.77-27.98c53.73,6.51-26.09,21.79,24.89,94.03
		c17.87,25.33-46.42,32.95-76.75,16.68C34.24,128.59,13.7,93.2,35.6,61.03z"/>
	<path class="st16" d="M34.16,60.46c15.65-29.66,48.82-29.9,82.05-25.37c54.97,7.51-35.36,16.31,23.97,91.92
		c20.7,26.39-50.99,31.16-80.65,15.5S18.51,90.12,34.16,60.46z"/>
</g>
</svg>
